<svg width="24" height="24" viewBox="0 0 24 24" fill="none" xmlns="http://www.w3.org/2000/svg">
<path d="M9 10L12 10" stroke="#1D4793" stroke-width="2" stroke-linecap="round" stroke-linejoin="round"/>
<path d="M9 14L12 14" stroke="#1D4793" stroke-width="2" stroke-linecap="round" stroke-linejoin="round"/>
<path d="M9 18L12 18" stroke="#1D4793" stroke-width="2" stroke-linecap="round" stroke-linejoin="round"/>
<path d="M16 2L20 2" stroke="#1D4793" stroke-width="2" stroke-linecap="round" stroke-linejoin="round"/>
<path d="M18 22L18 2" stroke="#1D4793" stroke-width="2" stroke-linecap="round" stroke-linejoin="round"/>
<path d="M16 22L20 22" stroke="#1D4793" stroke-width="2" stroke-linecap="round" stroke-linejoin="round"/>
<path d="M9 6L12 6" stroke="#1D4793" stroke-width="2" stroke-linecap="round" stroke-linejoin="round"/>
<path d="M12 20L12 4C12 2.89543 11.1046 2 10 2L6 2C4.89543 2 4 2.89543 4 4L4 20C4 21.1046 4.89543 22 6 22L10 22C11.1046 22 12 21.1046 12 20Z" stroke="#1D4793" stroke-width="2" stroke-linecap="round" stroke-linejoin="round"/>
</svg>
