<svg width="24" height="24" viewBox="0 0 24 24" fill="none" xmlns="http://www.w3.org/2000/svg">
<path d="M6.5007 8C6.06779 8.00427 5.64795 8.14891 5.30425 8.41218C4.96056 8.67545 4.71158 9.04314 4.5947 9.46L2.1007 18.5C2.02511 18.7926 2.01679 19.0985 2.07639 19.3947C2.13598 19.691 2.26193 19.9699 2.44479 20.2105C2.62764 20.4511 2.86263 20.6471 3.13211 20.7839C3.4016 20.9206 3.69856 20.9945 4.0007 21H20.0007C20.3094 20.9999 20.6138 20.9283 20.8902 20.7909C21.1666 20.6535 21.4075 20.454 21.5939 20.208C21.7804 19.962 21.9073 19.6762 21.9649 19.3729C22.0225 19.0697 22.009 18.7572 21.9257 18.46L19.4007 9.5C19.2906 9.07341 19.0427 8.69512 18.6955 8.42388C18.3483 8.15265 17.9213 8.00364 17.4807 8H6.5007Z" stroke="#2964A9" stroke-width="2" stroke-linecap="round" stroke-linejoin="round"/>
<path d="M7.99805 15C8.23091 14.6895 8.53287 14.4375 8.88001 14.2639C9.22715 14.0904 9.60993 14 9.99805 14C10.3862 14 10.7689 14.0904 11.1161 14.2639C11.4632 14.4375 11.7652 14.6895 11.998 15C12.2309 15.3105 12.5329 15.5625 12.88 15.7361C13.2272 15.9096 13.6099 16 13.998 16C14.3862 16 14.7689 15.9096 15.1161 15.7361C15.4632 15.5625 15.7652 15.3105 15.998 15" stroke="#2964A9" stroke-width="2" stroke-linecap="round" stroke-linejoin="round"/>
<path d="M12 8C13.6569 8 15 6.65685 15 5C15 3.34315 13.6569 2 12 2C10.3431 2 9 3.34315 9 5C9 6.65685 10.3431 8 12 8Z" stroke="#2964A9" stroke-width="2" stroke-linecap="round" stroke-linejoin="round"/>
</svg>
