<svg width="55" height="55" viewBox="0 0 55 55" fill="none" xmlns="http://www.w3.org/2000/svg">
<path d="M36.6673 22.9167C36.6673 17.8521 32.5652 13.75 27.5007 13.75C22.4361 13.75 18.334 17.8521 18.334 22.9167C18.334 27.9813 22.4361 32.0833 27.5007 32.0833C32.5652 32.0833 36.6673 27.9813 36.6673 22.9167ZM22.9173 22.9167C22.9173 20.3958 24.9798 18.3333 27.5007 18.3333C30.0215 18.3333 32.084 20.3958 32.084 22.9167C32.084 25.4375 30.0215 27.5 27.5007 27.5C24.9798 27.5 22.9173 25.4375 22.9173 22.9167Z" fill="#04296B"/>
<path d="M26.1704 49.9814C26.56 50.2564 27.0412 50.4168 27.4996 50.4168C27.9579 50.4168 28.4391 50.2793 28.8287 49.9814C29.5162 49.4772 45.9016 37.6751 45.8329 22.8939C45.8329 12.7876 37.6058 4.56055 27.4996 4.56055C17.3933 4.56055 9.16623 12.7876 9.16623 22.8939C9.09748 37.6522 25.4829 49.4772 26.1704 49.9814ZM27.4996 9.1668C35.085 9.1668 41.2496 15.3314 41.2496 22.9168C41.2954 33.0918 31.1891 42.2355 27.4996 45.2376C23.81 42.2355 13.7037 33.1147 13.7496 22.9168C13.7496 15.3314 19.9141 9.1668 27.4996 9.1668Z" fill="#04296B"/>
</svg>
