<svg width="50" height="50" viewBox="0 0 50 50" fill="none" xmlns="http://www.w3.org/2000/svg">
<path d="M18.7493 8.33301H11.4577C11.1814 8.33301 10.9165 8.44275 10.7211 8.63811C10.5258 8.83346 10.416 9.09841 10.416 9.37467V44.7913C10.416 45.0676 10.5258 45.3326 10.7211 45.5279C10.9165 45.7233 11.1814 45.833 11.4577 45.833H40.6243C40.9006 45.833 41.1656 45.7233 41.3609 45.5279C41.5563 45.3326 41.666 45.0676 41.666 44.7913V9.37467C41.666 9.09841 41.5563 8.83346 41.3609 8.63811C41.1656 8.44275 40.9006 8.33301 40.6243 8.33301H33.3327" stroke="#04296B" stroke-width="2"/>
<path d="M18.75 13.5417V8.33333H22.8646C22.8784 8.33333 22.8916 8.32785 22.9014 8.31808C22.9112 8.30831 22.9167 8.29506 22.9167 8.28125V6.25C22.9167 5.83962 22.9975 5.43326 23.1545 5.05411C23.3116 4.67497 23.5418 4.33047 23.832 4.04029C24.1221 3.75011 24.4666 3.51992 24.8458 3.36288C25.2249 3.20583 25.6313 3.125 26.0417 3.125C26.452 3.125 26.8584 3.20583 27.2376 3.36288C27.6167 3.51992 27.9612 3.75011 28.2514 4.04029C28.5416 4.33047 28.7717 4.67497 28.9288 5.05411C29.0858 5.43326 29.1667 5.83962 29.1667 6.25V8.28125C29.1667 8.31042 29.1896 8.33333 29.2187 8.33333H33.3333V13.5417C33.3333 13.8179 33.2236 14.0829 33.0282 14.2782C32.8329 14.4736 32.5679 14.5833 32.2917 14.5833H19.7917C19.5154 14.5833 19.2504 14.4736 19.0551 14.2782C18.8597 14.0829 18.75 13.8179 18.75 13.5417Z" stroke="#04296B" stroke-width="2"/>
</svg>
