<svg width="24" height="24" viewBox="0 0 24 24" fill="none" xmlns="http://www.w3.org/2000/svg">
<path d="M2.70089 10.2997C2.47684 10.5235 2.2991 10.7893 2.17783 11.0818C2.05656 11.3744 1.99414 11.688 1.99414 12.0047C1.99414 12.3214 2.05656 12.635 2.17783 12.9275C2.2991 13.2201 2.47684 13.4859 2.70089 13.7097L10.2909 21.2997C10.5147 21.5237 10.7805 21.7015 11.073 21.8227C11.3656 21.944 11.6792 22.0064 11.9959 22.0064C12.3126 22.0064 12.6262 21.944 12.9187 21.8227C13.2113 21.7015 13.4771 21.5237 13.7009 21.2997L21.2909 13.7097C21.5149 13.4859 21.6927 13.2201 21.8139 12.9275C21.9352 12.635 21.9976 12.3214 21.9976 12.0047C21.9976 11.688 21.9352 11.3744 21.8139 11.0818C21.6927 10.7893 21.5149 10.5235 21.2909 10.2997L13.7009 2.70968C13.4771 2.48562 13.2113 2.30788 12.9187 2.18662C12.6262 2.06535 12.3126 2.00293 11.9959 2.00293C11.6792 2.00293 11.3656 2.06535 11.073 2.18662C10.7805 2.30788 10.5147 2.48562 10.2909 2.70968L2.70089 10.2997Z" stroke="#2964A9" stroke-width="2" stroke-linecap="round" stroke-linejoin="round"/>
<path d="M8 12H16" stroke="#2964A9" stroke-width="2" stroke-linecap="round" stroke-linejoin="round"/>
</svg>
