<svg width="24" height="24" viewBox="0 0 24 24" fill="none" xmlns="http://www.w3.org/2000/svg">
<path d="M10 20L8.75 17.5L6 18" stroke="#2964A9" stroke-width="2" stroke-linecap="round" stroke-linejoin="round"/>
<path d="M10 4L8.75 6.5L6 6" stroke="#2964A9" stroke-width="2" stroke-linecap="round" stroke-linejoin="round"/>
<path d="M14 20L15.25 17.5L18 18" stroke="#2964A9" stroke-width="2" stroke-linecap="round" stroke-linejoin="round"/>
<path d="M14 4L15.25 6.5L18 6" stroke="#2964A9" stroke-width="2" stroke-linecap="round" stroke-linejoin="round"/>
<path d="M17 21L14 15H10" stroke="#2964A9" stroke-width="2" stroke-linecap="round" stroke-linejoin="round"/>
<path d="M17 3L14 9L15.5 12" stroke="#2964A9" stroke-width="2" stroke-linecap="round" stroke-linejoin="round"/>
<path d="M2 12H8.5L10 9" stroke="#2964A9" stroke-width="2" stroke-linecap="round" stroke-linejoin="round"/>
<path d="M20 10L18.5 12L20 14" stroke="#2964A9" stroke-width="2" stroke-linecap="round" stroke-linejoin="round"/>
<path d="M22 12H15.5L14 15" stroke="#2964A9" stroke-width="2" stroke-linecap="round" stroke-linejoin="round"/>
<path d="M4 10L5.5 12L4 14" stroke="#2964A9" stroke-width="2" stroke-linecap="round" stroke-linejoin="round"/>
<path d="M7 21L10 15L8.5 12" stroke="#2964A9" stroke-width="2" stroke-linecap="round" stroke-linejoin="round"/>
<path d="M7 3L10 9H14" stroke="#2964A9" stroke-width="2" stroke-linecap="round" stroke-linejoin="round"/>
</svg>
