<svg width="55" height="55" viewBox="0 0 55 55" fill="none" xmlns="http://www.w3.org/2000/svg">
<path d="M27.0417 4.125C27.9018 4.125 28.7497 4.1716 29.5854 4.26479C29.8846 4.2979 30.1742 4.3896 30.4379 4.53466C30.7017 4.67972 30.9342 4.8753 31.1223 5.11023C31.3104 5.34516 31.4504 5.61484 31.5343 5.90388C31.6182 6.19292 31.6444 6.49565 31.6113 6.79479C31.5781 7.09393 31.4864 7.38362 31.3414 7.64732C31.1963 7.91103 31.0007 8.14357 30.7658 8.33169C30.5309 8.5198 30.2612 8.65981 29.9722 8.7437C29.6831 8.82759 29.3804 8.85373 29.0813 8.82062C25.3047 8.39814 21.4902 9.15965 18.1653 10.9998C14.8404 12.84 12.1696 15.6679 10.5221 19.0923C8.87466 22.5168 8.33205 26.3685 8.96934 30.1148C9.60662 33.8611 11.3923 37.3168 14.0794 40.0039C16.7665 42.691 20.2222 44.4767 23.9685 45.114C27.7148 45.7513 31.5666 45.2087 34.991 43.5612C38.4155 41.9138 41.2433 39.2429 43.0835 35.918C44.9237 32.5932 45.6852 28.7786 45.2627 25.0021C45.2296 24.7029 45.2557 24.4002 45.3396 24.1112C45.4235 23.8221 45.5635 23.5525 45.7516 23.3175C46.1316 22.8431 46.6844 22.5389 47.2885 22.4721C47.8927 22.4052 48.4986 22.5811 48.9731 22.961C49.208 23.1491 49.4036 23.3817 49.5487 23.6454C49.6937 23.9091 49.7854 24.1988 49.8185 24.4979C49.9102 25.3336 49.9568 26.1815 49.9583 27.0417C49.9583 39.6985 39.6985 49.9583 27.0417 49.9583C14.3848 49.9583 4.125 39.6985 4.125 27.0417C4.125 14.3848 14.3848 4.125 27.0417 4.125ZM26.9683 17.5931C27.1194 18.1814 27.0307 18.8057 26.7217 19.3286C26.4127 19.8516 25.9088 20.2305 25.3206 20.3821C23.7047 20.8054 22.298 21.8022 21.363 23.1864C20.428 24.5707 20.0286 26.2478 20.2393 27.9049C20.45 29.562 21.2565 31.0859 22.5081 32.1921C23.7598 33.2983 25.3712 33.9113 27.0417 33.9167C28.5663 33.9173 30.0479 33.4111 31.2535 32.4777C32.459 31.5443 33.3201 30.2367 33.7013 28.7604C33.8637 28.1837 34.2455 27.6936 34.7649 27.395C35.2843 27.0964 35.9 27.0131 36.4801 27.1629C37.0602 27.3127 37.5586 27.6837 37.8685 28.1965C38.1783 28.7093 38.275 29.323 38.1379 29.9063C37.4349 32.6011 35.7748 34.9478 33.4679 36.508C31.1609 38.0682 28.3648 38.7352 25.6019 38.3843C22.8391 38.0334 20.2985 36.6886 18.4548 34.6013C16.6111 32.5139 15.5904 29.8267 15.5833 27.0417C15.5829 24.5011 16.4269 22.0324 17.9825 20.0238C19.5381 18.0152 21.7172 16.5806 24.1771 15.9454C24.4686 15.8703 24.772 15.8533 25.07 15.8955C25.368 15.9376 25.6548 16.0381 25.914 16.1911C26.1732 16.3441 26.3997 16.5467 26.5806 16.7872C26.7615 17.0278 26.8933 17.3016 26.9683 17.5931ZM41.9467 4.41604C42.365 4.58947 42.7225 4.88294 42.9742 5.2594C43.2258 5.63585 43.3603 6.07843 43.3606 6.53125V10.725H47.5521C48.0053 10.7251 48.4482 10.8596 48.825 11.1114C49.2018 11.3632 49.4954 11.7211 49.6688 12.1398C49.8423 12.5584 49.8876 13.0191 49.7993 13.4636C49.7109 13.9081 49.4927 14.3164 49.1723 14.6369L41.0667 22.7333C40.637 23.1631 40.0542 23.4047 39.4465 23.4048H33.9167L29.7275 27.5962C29.2975 28.0263 28.7143 28.2678 28.1061 28.2678C27.498 28.2678 26.9148 28.0263 26.4848 27.5962C26.0548 27.1662 25.8132 26.583 25.8132 25.9749C25.8132 25.3668 26.0548 24.7836 26.4848 24.3535L30.6763 20.1667V14.6346C30.6764 14.0268 30.9179 13.444 31.3477 13.0144L39.4488 4.91104C39.7692 4.59036 40.1776 4.37195 40.6223 4.28343C41.0669 4.19491 41.5278 4.24026 41.9467 4.41375M38.7773 12.061L35.2596 15.5833V18.8237H38.5L42.02 15.306H41.069C40.4612 15.306 39.8783 15.0646 39.4485 14.6348C39.0187 14.2051 38.7773 13.6222 38.7773 13.0144V12.061Z" fill="#04296B"/>
</svg>
