<svg width="24" height="24" viewBox="0 0 24 24" fill="none" xmlns="http://www.w3.org/2000/svg">
<path d="M10 2V10" stroke="#2964A9" stroke-width="2" stroke-linecap="round" stroke-linejoin="round"/>
<path d="M12.8 21.6C13.0535 21.7901 13.3486 21.9173 13.6609 21.971C13.9732 22.0248 14.2938 22.0035 14.5963 21.909C14.8988 21.8145 15.1745 21.6495 15.4007 21.4276C15.6269 21.2056 15.7972 20.9331 15.8974 20.6325C15.9976 20.3318 16.0249 20.0117 15.9771 19.6984C15.9293 19.3851 15.8078 19.0877 15.6225 18.8306C15.4372 18.5735 15.1935 18.3641 14.9114 18.2197C14.6293 18.0753 14.3169 18 14 18H2" stroke="#2964A9" stroke-width="2" stroke-linecap="round" stroke-linejoin="round"/>
<path d="M17.5 10C17.7557 9.65909 18.0943 9.38919 18.4836 9.21594C18.8729 9.04269 19.3001 8.97183 19.7245 9.0101C20.1489 9.04837 20.5565 9.1945 20.9086 9.4346C21.2606 9.6747 21.5455 10.0008 21.7361 10.382C21.9266 10.7631 22.0166 11.1867 21.9975 11.6124C21.9783 12.0381 21.8507 12.4518 21.6266 12.8143C21.4026 13.1768 21.0896 13.476 20.7174 13.6836C20.3452 13.8911 19.9261 14 19.5 14H2" stroke="#2964A9" stroke-width="2" stroke-linecap="round" stroke-linejoin="round"/>
<path d="M6 6L10 10L14 6" stroke="#2964A9" stroke-width="2" stroke-linecap="round" stroke-linejoin="round"/>
</svg>
